<svg xmlns="http://www.w3.org/2000/svg" xmlns:xlink="http://www.w3.org/1999/xlink" width="150" height="150" viewBox="0 0 150 150">
  <defs>
    <style>
      .cls-1 {
        clip-path: url(#clip-Blue);
      }

      .cls-2 {
        fill: #00449d;
      }

      .cls-3 {
        fill: url(#radial-gradient);
      }

      .cls-4 {
        fill: url(#radial-gradient-2);
      }

      .cls-5 {
        fill: url(#radial-gradient-3);
      }

      .cls-6 {
        fill: url(#radial-gradient-4);
      }

      .cls-7 {
        fill: none;
        stroke: #c8c8c8;
      }

      .cls-8 {
        fill: #0052b3;
      }

      .cls-9 {
        filter: url(#Tracé_7);
      }

      .cls-10 {
        filter: url(#Tracé_6);
      }

      .cls-11 {
        filter: url(#Tracé_5);
      }
    </style>
    <radialGradient id="radial-gradient" cx="0.5" cy="0.5" r="0.5" gradientUnits="objectBoundingBox">
      <stop offset="0" stop-color="#004cff" stop-opacity="0.18"/>
      <stop offset="0.427" stop-color="#003cff" stop-opacity="0.345"/>
      <stop offset="0.749" stop-color="#002bff" stop-opacity="0.412"/>
      <stop offset="1" stop-color="#02f"/>
    </radialGradient>
    <filter id="Tracé_5" x="32.857" y="2.537" width="83.818" height="98.67" filterUnits="userSpaceOnUse">
      <feOffset input="SourceAlpha"/>
      <feGaussianBlur stdDeviation="3" result="blur"/>
      <feFlood flood-color="#08f"/>
      <feComposite operator="in" in2="blur"/>
      <feComposite in="SourceGraphic"/>
    </filter>
    <radialGradient id="radial-gradient-2" cx="0.5" cy="0.5" r="0.5" gradientUnits="objectBoundingBox">
      <stop offset="0" stop-color="#fff" stop-opacity="0.78"/>
      <stop offset="1" stop-color="#fff" stop-opacity="0.451"/>
    </radialGradient>
    <filter id="Tracé_6" x="22.263" y="7.08" width="52.056" height="73.203" filterUnits="userSpaceOnUse">
      <feOffset input="SourceAlpha"/>
      <feGaussianBlur stdDeviation="7.5" result="blur-2"/>
      <feFlood flood-color="#fff"/>
      <feComposite operator="in" in2="blur-2"/>
      <feComposite in="SourceGraphic"/>
    </filter>
    <radialGradient id="radial-gradient-3" cx="0.5" cy="0.5" r="0.5" gradientUnits="objectBoundingBox">
      <stop offset="0" stop-color="#fff" stop-opacity="0.761"/>
      <stop offset="1" stop-color="#fff" stop-opacity="0.369"/>
    </radialGradient>
    <filter id="Tracé_7" x="41.655" y="14.445" width="53.523" height="60.71" filterUnits="userSpaceOnUse">
      <feOffset dy="3" input="SourceAlpha"/>
      <feGaussianBlur stdDeviation="7" result="blur-3"/>
      <feFlood flood-color="#fff"/>
      <feComposite operator="in" in2="blur-3"/>
      <feComposite in="SourceGraphic"/>
    </filter>
    <radialGradient id="radial-gradient-4" cx="0.5" cy="0.5" r="0.5" gradientUnits="objectBoundingBox">
      <stop offset="0" stop-color="#fff"/>
      <stop offset="0.435" stop-color="#fff" stop-opacity="0.765"/>
      <stop offset="1" stop-color="#fff" stop-opacity="0.529"/>
    </radialGradient>
    <clipPath id="clip-Blue">
      <rect width="150" height="150"/>
    </clipPath>
  </defs>
  <g id="Blue" class="cls-1">
    <path id="Tracé_9" data-name="Tracé 9" class="cls-2" d="M2.984-.412c1.381,0,.488,1.407.078,2.677a7.543,7.543,0,0,0-.43,1.309.814.814,0,0,0,.176.723c.664.137,2.256,2.832-1.153,2.364C-1.087,6.571-.868,5.584.053,4.433c.41-.488,1.094-.449.957-.957s-.254-.43-.723-.84C-.3,2.186-.9.537-.1-.217A13.271,13.271,0,0,1,2.984-.412Z" transform="translate(72 92)"/>
    <g class="cls-11" transform="matrix(1, 0, 0, 1, 0, 0)">
      <path id="Tracé_5-2" data-name="Tracé 5" class="cls-3" d="M16.5-.433c14.964.8,32.176,12.289,32.176,34.1S26.046,80.206,14.731,80.206-17.143,57.558-17.143,35.743,1.536-1.23,16.5-.433Z" transform="translate(59 12)"/>
    </g>
    <g class="cls-10" transform="matrix(1, 0, 0, 1, 0, 0)">
      <path id="Tracé_6-2" data-name="Tracé 6" class="cls-4" d="M4.476-.565c1.711,0-3.522,8-3.654,13.424s1.711,14.779,0,14.779-3.058-6.146-3.058-13.987S2.765-.565,4.476-.565Z" transform="translate(47 30.15)"/>
    </g>
    <g class="cls-9" transform="matrix(1, 0, 0, 1, 0, 0)">
      <path id="Tracé_7-2" data-name="Tracé 7" class="cls-5" d="M6.005.457c4.567.254,5.174,3.135,5.174,8.313s-1.614,10.909-6.7,10.347S-.343,14.433-.343,9.256,1.438.2,6.005.457Z" transform="translate(63 32)"/>
    </g>
    <path id="Tracé_8" data-name="Tracé 8" class="cls-6" d="M4,.026c4.109.19,6.024,2.769,6.024,6.635S8.572,14.807,4,14.387-.964,11.034-.964,7.168-.109-.164,4,.026Z" transform="translate(79 30)"/>
    <path id="Tracé_10" data-name="Tracé 10" class="cls-7" d="M1.125.672h0A4.622,4.622,0,0,1,.813,2.078,34.792,34.792,0,0,0-.93,10.029c-.192,3.449-1.341,11.788-1.341,17.244s3.4,21.489,3.4,21.489" transform="translate(72.5 96.5)"/>
    <path id="Tracé_11" data-name="Tracé 11" class="cls-8" d="M1.5,0C2.328,0,3,.448,3,1L2.533,2.122s-.467-.187-.906-.313-.665.5-1.04.255A2.267,2.267,0,0,1,0,1C0,.448.672,0,1.5,0Z" transform="matrix(0.998, 0.07, -0.07, 0.998, 72.075, 95.863)"/>
  </g>
</svg>
