<svg xmlns="http://www.w3.org/2000/svg" width="21.562" height="37.995" viewBox="0 0 21.562 37.995">
  <g id="Facebook" transform="translate(-751 -3339.992)">
    <path id="facebook-2" data-name="facebook" d="M15.848,9.4c.052-.058.295-.249,1.246-.249h3.123a1.845,1.845,0,0,0,1.844-1.845V1.849A1.846,1.846,0,0,0,20.223.006L15.583,0a9.552,9.552,0,0,0-7.04,2.732A10.026,10.026,0,0,0,5.892,9.913v2.945H2.342A1.845,1.845,0,0,0,.5,14.7v5.88a1.845,1.845,0,0,0,1.842,1.845H5.892V36.148a1.845,1.845,0,0,0,1.843,1.84h6.084a1.845,1.845,0,0,0,1.843-1.843V22.426H20a1.845,1.845,0,0,0,1.842-1.842V14.7a1.849,1.849,0,0,0-.948-1.611,1.872,1.872,0,0,0-.914-.231H15.662V10.535c0-.758.1-1.032.188-1.13Zm0,0" transform="translate(750.5 3340)" fill="#073965"/>
  </g>
</svg>
