<svg id="facebook_white" data-name="facebook white" xmlns="http://www.w3.org/2000/svg" width="38.751" height="68.286" viewBox="0 0 38.751 68.286">
  <path id="facebook" d="M28.085,16.9c.093-.1.53-.448,2.239-.448h5.613a3.316,3.316,0,0,0,3.314-3.316V3.328A3.317,3.317,0,0,0,35.946.017L27.607,0a17.168,17.168,0,0,0-12.652,4.91,18.019,18.019,0,0,0-4.764,12.909v5.292H3.811A3.316,3.316,0,0,0,.5,26.427V36.995a3.316,3.316,0,0,0,3.311,3.316H10.19V64.972A3.316,3.316,0,0,0,13.5,68.279H24.436a3.316,3.316,0,0,0,3.313-3.313V40.311h7.8A3.316,3.316,0,0,0,38.857,37V26.432a3.323,3.323,0,0,0-1.7-2.9,3.365,3.365,0,0,0-1.642-.415H27.749V18.94c0-1.363.184-1.856.337-2.03Zm0,0" transform="translate(-0.5 0.008)" fill="#fff"/>
</svg>
