<svg id="instagram_white" data-name="instagram white" xmlns="http://www.w3.org/2000/svg" width="71.313" height="71.313" viewBox="0 0 71.313 71.313">
  <g id="instagram" transform="translate(0)">
    <g id="Groupe_49" data-name="Groupe 49">
      <g id="Groupe_48" data-name="Groupe 48">
        <path id="Tracé_37" data-name="Tracé 37" d="M49.027,0H22.286A22.287,22.287,0,0,0,0,22.284V49.027A22.287,22.287,0,0,0,22.284,71.313H49.027A22.287,22.287,0,0,0,71.313,49.029V22.286A22.287,22.287,0,0,0,49.029,0Zm15.6,49.027a15.617,15.617,0,0,1-15.6,15.6H22.286a15.617,15.617,0,0,1-15.6-15.6V22.286a15.617,15.617,0,0,1,15.6-15.6H49.027a15.617,15.617,0,0,1,15.6,15.6Z" fill="#fff"/>
      </g>
    </g>
    <g id="Groupe_51" data-name="Groupe 51" transform="translate(17.828 17.828)">
      <g id="Groupe_50" data-name="Groupe 50">
        <path id="Tracé_38" data-name="Tracé 38" d="M145.828,128a17.828,17.828,0,1,0,17.828,17.828A17.828,17.828,0,0,0,145.828,128Zm0,28.97a11.142,11.142,0,1,1,11.142-11.142,11.142,11.142,0,0,1-11.142,11.142Z" transform="translate(-128 -128)" fill="#fff"/>
      </g>
    </g>
    <g id="Groupe_53" data-name="Groupe 53" transform="translate(52.446 14.115)">
      <g id="Groupe_52" data-name="Groupe 52" transform="translate(0 0)">
        <circle id="Ellipse_4" data-name="Ellipse 4" cx="2.376" cy="2.376" r="2.376" fill="#fff"/>
      </g>
    </g>
  </g>
</svg>
