<svg xmlns="http://www.w3.org/2000/svg" width="39.679" height="39.679" viewBox="0 0 39.679 39.679">
  <g id="Instagram" transform="translate(-312 -3701)">
    <g id="instagram-2" data-name="instagram" transform="translate(312 3701)">
      <g id="Groupe_49" data-name="Groupe 49">
        <g id="Groupe_48" data-name="Groupe 48">
          <path id="Tracé_37" data-name="Tracé 37" d="M27.279,0H12.4A12.4,12.4,0,0,0,0,12.4v14.88a12.4,12.4,0,0,0,12.4,12.4h14.88a12.4,12.4,0,0,0,12.4-12.4V12.4A12.4,12.4,0,0,0,27.28,0Zm8.68,27.279a8.69,8.69,0,0,1-8.68,8.68H12.4a8.69,8.69,0,0,1-8.68-8.68V12.4A8.69,8.69,0,0,1,12.4,3.72H27.279a8.69,8.69,0,0,1,8.68,8.68Z" fill="#073965"/>
        </g>
      </g>
      <g id="Groupe_51" data-name="Groupe 51" transform="translate(9.92 9.92)">
        <g id="Groupe_50" data-name="Groupe 50">
          <path id="Tracé_38" data-name="Tracé 38" d="M137.92,128a9.92,9.92,0,1,0,9.92,9.92,9.92,9.92,0,0,0-9.92-9.92Zm0,16.119a6.2,6.2,0,1,1,6.2-6.2,6.2,6.2,0,0,1-6.2,6.2Z" transform="translate(-128 -128)" fill="#073965"/>
        </g>
      </g>
      <g id="Groupe_53" data-name="Groupe 53" transform="translate(29.182 7.854)">
        <g id="Groupe_52" data-name="Groupe 52" transform="translate(0 0)">
          <circle id="Ellipse_4" data-name="Ellipse 4" cx="1.322" cy="1.322" r="1.322" fill="#073965"/>
        </g>
      </g>
    </g>
  </g>
</svg>
