<svg id="rotate" xmlns="http://www.w3.org/2000/svg" width="277.816" height="277.827" viewBox="0 0 277.816 277.827">
  <g id="Groupe_14" data-name="Groupe 14" transform="translate(11.585 11.573)">
    <path id="Tracé_65" data-name="Tracé 65" d="M249.092,74.442l-7.964-7.964L190.181,15.531l-7.964-7.964c-9.654-9.654-26.486-8.532-37.53,2.5L10.068,144.72c-11.032,11.032-12.155,27.864-2.5,37.53l66.864,66.864c9.654,9.654,26.486,8.532,37.53-2.5L246.6,111.972c11.032-11.044,12.155-27.875,2.489-37.53Zm-17.052,26.6L101.033,232.051c-4.017,4.017-10.129,4.422-13.648.915L23.7,169.285c-3.519-3.519-3.114-9.631.915-13.648L155.626,24.63c4.017-4.017,10.129-4.422,13.648-.915l3.183,3.183c3.519,3.519,3.114,9.631-.915,13.648s-4.422,10.129-.915,13.648l31.846,31.846c3.519,3.519,9.631,3.114,13.648-.915s10.129-4.422,13.648-.915l3.183,3.183c3.508,3.519,3.1,9.631-.915,13.648Z" transform="translate(-1.001 -1)" fill="#fff"/>
  </g>
  <g id="Groupe_15" data-name="Groupe 15" transform="translate(150.48 150.49)">
    <path id="Tracé_66" data-name="Tracé 66" d="M22.687,140.337a9.676,9.676,0,0,1-6.853-16.519L43.385,96.267a9.682,9.682,0,0,1,14.343.718l10.21,12.491c31.221-16.589,52.729-49.372,53.03-86.867A9.681,9.681,0,0,1,130.646,13h.081a9.691,9.691,0,0,1,9.608,9.759c-.5,64.317-53.25,117.069-117.567,117.579h-.081Z" transform="translate(-12.999 -13)" fill="#fff"/>
  </g>
  <g id="Groupe_16" data-name="Groupe 16" transform="translate(0)">
    <path id="Tracé_67" data-name="Tracé 67" d="M117.66,0a9.676,9.676,0,0,1,6.853,16.519L96.962,44.07a9.694,9.694,0,0,1-14.354-.718L72.4,30.862c-31.221,16.589-52.729,49.372-53.03,86.867a9.691,9.691,0,0,1-9.689,9.608H9.6A9.689,9.689,0,0,1,0,117.579C.51,53.262,53.262.509,117.579,0Z" transform="translate(0)" fill="#fff"/>
  </g>
</svg>
