<svg id="twitter_white" data-name="twitter white" xmlns="http://www.w3.org/2000/svg" width="70.148" height="57.007" viewBox="0 0 70.148 57.007">
  <g id="twitter" transform="translate(0 0)">
    <g id="Groupe_47" data-name="Groupe 47" transform="translate(0 0)">
      <path id="Tracé_36" data-name="Tracé 36" d="M70.148,54.752a29.983,29.983,0,0,1-8.286,2.272,14.3,14.3,0,0,0,6.326-7.949,28.74,28.74,0,0,1-9.12,3.481,14.377,14.377,0,0,0-24.882,9.826,14.808,14.808,0,0,0,.334,3.28A40.7,40.7,0,0,1,4.883,50.625,14.377,14.377,0,0,0,9.3,69.846a14.2,14.2,0,0,1-6.5-1.772v.16A14.447,14.447,0,0,0,14.329,82.365a14.353,14.353,0,0,1-3.77.479A12.714,12.714,0,0,1,7.844,82.6,14.518,14.518,0,0,0,21.281,92.616,28.9,28.9,0,0,1,3.451,98.751,26.933,26.933,0,0,1,0,98.546,40.486,40.486,0,0,0,22.061,105c26.464,0,40.932-21.922,40.932-40.922,0-.639-.022-1.249-.053-1.859a28.689,28.689,0,0,0,7.208-7.467Z" transform="translate(0 -47.993)" fill="#fff"/>
    </g>
  </g>
</svg>
