<svg xmlns="http://www.w3.org/2000/svg" xmlns:xlink="http://www.w3.org/1999/xlink" width="70" height="70" viewBox="0 0 70 70">
  <defs>
    <clipPath id="clip-Taille_personnalisée_1">
      <rect width="70" height="70"/>
    </clipPath>
  </defs>
  <g id="Taille_personnalisée_1" data-name="Taille personnalisée – 1" clip-path="url(#clip-Taille_personnalisée_1)">
    <rect id="Rectangle_1" data-name="Rectangle 1" width="70" height="70" rx="6" fill="#2e5c9f"/>
    <g id="photo" transform="translate(16.4 -8.891)">
      <g id="Groupe_2" data-name="Groupe 2" transform="translate(0 24)">
        <g id="Groupe_1" data-name="Groupe 1">
          <circle id="Ellipse_1" data-name="Ellipse 1" cx="3.087" cy="3.087" r="3.087" transform="translate(13.847 9.817)" fill="#fff"/>
          <path id="Tracé_1" data-name="Tracé 1" d="M42.269,48.264a9.5,9.5,0,0,0-5.316-2.529V30.045A6.172,6.172,0,0,0,35.2,25.758,5.99,5.99,0,0,0,30.908,24H6.045a6.172,6.172,0,0,0-4.287,1.758A5.99,5.99,0,0,0,0,30.045V55.637a6.172,6.172,0,0,0,1.758,4.287,5.99,5.99,0,0,0,4.287,1.758H30.094A9.07,9.07,0,0,0,42.269,48.264Zm-40-18.219a3.806,3.806,0,0,1,3.772-3.772H30.908a3.806,3.806,0,0,1,3.772,3.772V43.42l-6.345-6.3a1.151,1.151,0,0,0-1.629,0l-9.56,9.6L10.674,40.2a1.151,1.151,0,0,0-1.629,0L2.272,47.063ZM6,59.453V59.41A3.762,3.762,0,0,1,3.344,58.3a3.912,3.912,0,0,1-1.072-2.658V50.279L9.9,42.648l6.473,6.473a1.192,1.192,0,0,0,1.629,0l9.56-9.6,6.259,6.3-.386.129a3.982,3.982,0,0,0-.557.171c-.171.043-.343.129-.514.171a1.284,1.284,0,0,0-.343.171,3.983,3.983,0,0,0-.429.214l-.643.386c-.129.086-.214.129-.343.214-.086.043-.129.086-.214.129a5.172,5.172,0,0,0-1.029.9,9.069,9.069,0,0,0-2.658,6.43,9.425,9.425,0,0,0,.214,1.886c.043.171.086.3.129.472.129.429.257.857.429,1.286v.043a7.863,7.863,0,0,0,.557,1.029Zm34.6.043a6.781,6.781,0,0,1-9.474.086c-.171-.171-.343-.386-.514-.557-.129-.129-.257-.3-.386-.429a4.071,4.071,0,0,1-.429-.729c-.086-.171-.171-.3-.257-.472a3.621,3.621,0,0,1-.214-.729c-.043-.171-.129-.386-.171-.557a7.1,7.1,0,0,1-.129-1.372,6.881,6.881,0,0,1,1.972-4.8,6.7,6.7,0,0,1,4.8-1.972,6.881,6.881,0,0,1,4.8,1.972,6.628,6.628,0,0,1,1.972,4.8A6.856,6.856,0,0,1,40.6,59.5Z" transform="translate(0 -24)" fill="#fff"/>
          <path id="Tracé_2" data-name="Tracé 2" d="M296.3,268.172h-2.615v-2.615a1.157,1.157,0,1,0-2.315,0v2.615h-2.615a1.157,1.157,0,1,0,0,2.315h2.615V273.1a1.157,1.157,0,1,0,2.315,0v-2.615H296.3a1.157,1.157,0,0,0,0-2.315Z" transform="translate(-256.777 -238.636)" fill="#fff"/>
        </g>
      </g>
    </g>
  </g>
</svg>
