<svg xmlns="http://www.w3.org/2000/svg" width="39.031" height="31.719" viewBox="0 0 39.031 31.719">
  <g id="Twitter" transform="translate(-845.563 -3362.993)">
    <g id="twitter-2" data-name="twitter" transform="translate(845.563 3362.993)">
      <g id="Groupe_47" data-name="Groupe 47" transform="translate(0 0)">
        <path id="Tracé_36" data-name="Tracé 36" d="M39.031,51.754a16.683,16.683,0,0,1-4.61,1.264,7.957,7.957,0,0,0,3.52-4.423,15.991,15.991,0,0,1-5.074,1.937A8,8,0,0,0,19.021,56a8.24,8.24,0,0,0,.186,1.825,22.649,22.649,0,0,1-16.49-8.366A8,8,0,0,0,5.177,60.152a7.9,7.9,0,0,1-3.615-.986v.089a8.039,8.039,0,0,0,6.411,7.863,7.986,7.986,0,0,1-2.1.267,7.075,7.075,0,0,1-1.511-.137,8.078,8.078,0,0,0,7.477,5.574A16.078,16.078,0,0,1,1.92,76.235,14.986,14.986,0,0,1,0,76.121a22.527,22.527,0,0,0,12.275,3.591c14.725,0,22.775-12.2,22.775-22.769,0-.356-.012-.7-.029-1.035a15.963,15.963,0,0,0,4.01-4.154Z" transform="translate(0 -47.993)" fill="#073965"/>
      </g>
    </g>
  </g>
</svg>
