<svg xmlns="http://www.w3.org/2000/svg" xmlns:xlink="http://www.w3.org/1999/xlink" width="171" height="171" viewBox="0 0 171 171">
  <defs>
    <filter id="Rectangle_8" x="0" y="0" width="171" height="171" filterUnits="userSpaceOnUse">
      <feOffset dy="3" input="SourceAlpha"/>
      <feGaussianBlur stdDeviation="3" result="blur"/>
      <feFlood flood-opacity="0.161"/>
      <feComposite operator="in" in2="blur"/>
      <feComposite in="SourceGraphic"/>
    </filter>
  </defs>
  <g id="Logo-whatIsIt" transform="translate(-383 -181)">
    <g transform="matrix(1, 0, 0, 1, 383, 181)" filter="url(#Rectangle_8)">
      <rect id="Rectangle_8-2" data-name="Rectangle 8" width="153" height="153" rx="27" transform="translate(9 6)" fill="#626ed4"/>
    </g>
    <g id="world-wide-web" transform="translate(413.944 209)">
      <path id="Tracé_10" data-name="Tracé 10" d="M33.673,12.274,26.7,28.1a1.157,1.157,0,0,1-1.076.645H22.06a1.153,1.153,0,0,1-1.072-.645l-3.308-7.551c-.322-.745-.616-1.457-.892-2.165-.306.779-.62,1.5-.934,2.2l-3.489,7.538a1.162,1.162,0,0,1-1.068.624H7.729a1.154,1.154,0,0,1-1.085-.662L.124,12.253a.911.911,0,0,1,.142-.926,1.2,1.2,0,0,1,.942-.431H5.224a1.149,1.149,0,0,1,1.1.708L9.19,19.645c.239.678.461,1.319.666,1.931q.377-.917.812-1.939l3.526-8.091a1.161,1.161,0,0,1,1.072-.649h3.317a1.164,1.164,0,0,1,1.08.657l3.342,7.915c.3.712.57,1.378.817,2.006.205-.595.444-1.24.716-1.947l3.086-7.949a1.152,1.152,0,0,1,1.089-.687h3.878a1.214,1.214,0,0,1,.951.436A.92.92,0,0,1,33.673,12.274Zm37.364,0L64.068,28.1A1.155,1.155,0,0,1,63,28.741H59.42a1.157,1.157,0,0,1-1.072-.645l-3.3-7.551c-.327-.745-.62-1.457-.9-2.165-.306.779-.62,1.5-.934,2.2l-3.489,7.538a1.157,1.157,0,0,1-1.068.624H45.085A1.158,1.158,0,0,1,44,28.079L37.479,12.253a.911.911,0,0,1,.142-.926,1.219,1.219,0,0,1,.942-.431H42.58a1.149,1.149,0,0,1,1.1.708l2.86,8.041c.239.678.461,1.319.674,1.931q.371-.917.8-1.939l3.53-8.091a1.152,1.152,0,0,1,1.072-.649H55.94a1.16,1.16,0,0,1,1.08.657l3.346,7.915c.3.712.565,1.378.808,2.006.214-.595.444-1.24.72-1.947l3.086-7.949a1.158,1.158,0,0,1,1.093-.687h3.878a1.2,1.2,0,0,1,.951.436A.912.912,0,0,1,71.037,12.274Zm37.36,0L101.433,28.1a1.161,1.161,0,0,1-1.076.645H96.784a1.153,1.153,0,0,1-1.072-.645l-3.3-7.551c-.327-.745-.62-1.457-.9-2.165-.306.779-.624,1.5-.938,2.2l-3.489,7.538a1.162,1.162,0,0,1-1.068.624H82.449a1.16,1.16,0,0,1-1.089-.662L74.84,12.253a.92.92,0,0,1,.138-.926,1.208,1.208,0,0,1,.946-.431h4.02a1.14,1.14,0,0,1,1.1.708l2.865,8.041c.239.678.461,1.319.67,1.931q.371-.917.8-1.939l3.53-8.091a1.163,1.163,0,0,1,1.076-.649H93.3a1.16,1.16,0,0,1,1.08.657l3.342,7.915c.3.712.574,1.378.821,2.006.205-.595.444-1.24.716-1.947l3.091-7.949a1.144,1.144,0,0,1,1.089-.687h3.878a1.2,1.2,0,0,1,.951.436A.938.938,0,0,1,108.4,12.274Z" transform="translate(0 34.722)" fill="#fff"/>
      <g id="Groupe_2" data-name="Groupe 2" transform="translate(2.284)">
        <path id="Tracé_11" data-name="Tracé 11" d="M9.475,37.691A46.256,46.256,0,0,1,13.9,29.16a4.031,4.031,0,0,0,.775.155h7.873A78.207,78.207,0,0,0,20.5,37.691H29.1a67.283,67.283,0,0,1,2.354-8.376h41.82a67.284,67.284,0,0,1,2.354,8.376h8.606a78.206,78.206,0,0,0-2.052-8.376h7.873a4.138,4.138,0,0,0,.779-.155,46.757,46.757,0,0,1,4.422,8.531h8.883a54.409,54.409,0,0,0-103.554,0Zm74.41-16.752H78.91a52.513,52.513,0,0,0-3.564-6.361A46.156,46.156,0,0,1,83.885,20.939ZM52.367,8.376c6.5,0,12.492,4.833,17.011,12.564H35.356C39.875,13.209,45.872,8.376,52.367,8.376Zm-22.987,6.2a53.069,53.069,0,0,0-3.56,6.361H20.849A46.379,46.379,0,0,1,29.38,14.578Z" transform="translate(-0.588)" fill="#fff"/>
        <path id="Tracé_12" data-name="Tracé 12" d="M95.259,17a46.514,46.514,0,0,1-4.427,8.531,4.031,4.031,0,0,0-.775-.155H82.181A78.208,78.208,0,0,0,84.233,17H75.626a66.371,66.371,0,0,1-2.354,8.376H31.457A67.08,67.08,0,0,1,29.1,17H20.5a78.208,78.208,0,0,0,2.052,8.376H14.676a4.031,4.031,0,0,0-.775.155A46.514,46.514,0,0,1,9.475,17H.588A54.521,54.521,0,0,0,52.367,54.691,54.512,54.512,0,0,0,104.142,17ZM20.849,33.752h4.975a52.746,52.746,0,0,0,3.56,6.361A46.268,46.268,0,0,1,20.849,33.752ZM52.367,46.315c-6.5,0-12.492-4.833-17.011-12.564H69.374C64.859,41.482,58.862,46.315,52.367,46.315Zm22.983-6.2a52.2,52.2,0,0,0,3.564-6.361h4.975A46.438,46.438,0,0,1,75.35,40.113Z" transform="translate(-0.588 54.194)" fill="#fff"/>
      </g>
    </g>
  </g>
</svg>
